<svg width="13" height="15" viewBox="0 0 13 15" fill="none" xmlns="http://www.w3.org/2000/svg">
<path fill-rule="evenodd" clip-rule="evenodd" d="M12.5 12.5V5.5L7.5 0.5H2.5C1.96957 0.5 1.46086 0.710714 1.08579 1.08579C0.710714 1.46086 0.5 1.96957 0.5 2.5V12.5C0.5 13.0304 0.710714 13.5391 1.08579 13.9142C1.46086 14.2893 1.96957 14.5 2.5 14.5H10.5C11.0304 14.5 11.5391 14.2893 11.9142 13.9142C12.2893 13.5391 12.5 13.0304 12.5 12.5Z" fill="#2AA566" stroke="#F3F3F3" stroke-linecap="round" stroke-linejoin="round"/>
<path fill-rule="evenodd" clip-rule="evenodd" d="M2.5 7.5H7.5H2.5Z" fill="#36769A"/>
<path d="M2.5 7.5H7.5" stroke="#F3F3F3" stroke-linecap="round" stroke-linejoin="round"/>
<path fill-rule="evenodd" clip-rule="evenodd" d="M2.5 9.49988H9.5H2.5Z" fill="#36769A"/>
<path d="M2.5 9.49988H9.5" stroke="#F3F3F3" stroke-linecap="round" stroke-linejoin="round"/>
<path fill-rule="evenodd" clip-rule="evenodd" d="M2.5 11.4998H5.5H2.5Z" fill="#36769A"/>
<path d="M2.5 11.4998H5.5" stroke="#F3F3F3" stroke-linecap="round" stroke-linejoin="round"/>
<path fill-rule="evenodd" clip-rule="evenodd" d="M7.5 0.5V3.5C7.5 4.03043 7.71071 4.53914 8.08579 4.91421C8.46086 5.28929 8.96957 5.5 9.5 5.5H12.5" fill="#2AA566"/>
<path d="M7.5 0.5V3.5C7.5 4.03043 7.71071 4.53914 8.08579 4.91421C8.46086 5.28929 8.96957 5.5 9.5 5.5H12.5" stroke="#F3F3F3" stroke-linecap="round" stroke-linejoin="round"/>
</svg>
