<svg width="23" height="23" viewBox="0 0 23 23" fill="none" xmlns="http://www.w3.org/2000/svg">
<path fill-rule="evenodd" clip-rule="evenodd" d="M6.02368 4.92857H16.9761V18.0714C16.9761 18.6524 16.7453 19.2095 16.3345 19.6203C15.9237 20.0311 15.3665 20.2619 14.7856 20.2619H8.21416C7.63321 20.2619 7.07605 20.0311 6.66526 19.6203C6.25446 19.2095 6.02368 18.6524 6.02368 18.0714V4.92857ZM11.4999 2.7381C12.0808 2.7381 12.638 2.96888 13.0488 3.37967C13.4596 3.79047 13.6903 4.34762 13.6903 4.92857H9.3094C9.3094 4.34762 9.54018 3.79047 9.95097 3.37967C10.3618 2.96888 10.9189 2.7381 11.4999 2.7381Z" stroke="#212121" stroke-linecap="round" stroke-linejoin="round"/>
<path d="M3.83325 4.92859H19.1666" stroke="#212121" stroke-linecap="round" stroke-linejoin="round"/>
<path d="M9.30933 8.21429V16.9762" stroke="#212121" stroke-linecap="round" stroke-linejoin="round"/>
<path d="M13.6904 8.21429V16.9762" stroke="#212121" stroke-linecap="round" stroke-linejoin="round"/>
</svg>
