<svg width="25" height="25" viewBox="0 0 25 25" fill="none" xmlns="http://www.w3.org/2000/svg">
<path d="M11.9048 5.35718H6.5477C5.91623 5.35718 5.31063 5.60803 4.86411 6.05454C4.4176 6.50106 4.16675 7.10666 4.16675 7.73813V18.4524C4.16675 19.0839 4.4176 19.6895 4.86411 20.136C5.31063 20.5825 5.91623 20.8334 6.5477 20.8334H18.4525C19.0839 20.8334 19.6895 20.5825 20.136 20.136C20.5826 19.6895 20.8334 19.0839 20.8334 18.4524V13.0953" stroke="#212121" stroke-linecap="round" stroke-linejoin="round"/>
<path fill-rule="evenodd" clip-rule="evenodd" d="M20.8335 4.12736C21.1508 4.45552 21.3266 4.89524 21.3228 5.35174C21.319 5.80824 21.136 6.24498 20.8132 6.56784L12.5001 14.8809L8.92871 16.0714L10.1192 12.5L18.437 4.11189C18.5943 3.95347 18.7815 3.82801 18.9878 3.74287C19.1941 3.65773 19.4153 3.61462 19.6385 3.61606C19.8617 3.6175 20.0823 3.66347 20.2875 3.75127C20.4927 3.83906 20.6783 3.96692 20.8335 4.12736V4.12736Z" stroke="#212121" stroke-linecap="round" stroke-linejoin="round"/>
<path d="M18.4524 6.54767L19.5869 7.73814" stroke="#212121" stroke-linecap="round" stroke-linejoin="round"/>
</svg>
