<svg width="19" height="20" viewBox="0 0 19 20" fill="none" xmlns="http://www.w3.org/2000/svg">
<path fill-rule="evenodd" clip-rule="evenodd" d="M9.5 0.5C10.523 0.5 11.5041 0.900356 12.2274 1.61299C12.9508 2.32563 13.3571 3.29218 13.3571 4.3V5.56667C13.3571 6.06569 13.2574 6.55983 13.0635 7.02086C12.8697 7.4819 12.5856 7.90081 12.2274 8.25367C11.8692 8.60654 11.444 8.88644 10.9761 9.07741C10.5081 9.26838 10.0065 9.36667 9.5 9.36667C8.99347 9.36667 8.49191 9.26838 8.02394 9.07741C7.55597 8.88644 7.13076 8.60654 6.77259 8.25367C6.41442 7.90081 6.1303 7.4819 5.93646 7.02086C5.74263 6.55983 5.64286 6.06569 5.64286 5.56667V4.3C5.64286 3.29218 6.04923 2.32563 6.77259 1.61299C7.49594 0.900356 8.47702 0.5 9.5 0.5V0.5ZM18.5 18.2333V17.3112C18.5 13.2743 13.7609 10.6333 9.5 10.6333C5.23914 10.6333 0.5 13.2743 0.5 17.3112V18.2333C0.5 18.5693 0.635459 18.8915 0.876577 19.129C1.1177 19.3665 1.44472 19.5 1.78571 19.5H17.2143C17.5553 19.5 17.8823 19.3665 18.1234 19.129C18.3645 18.8915 18.5 18.5693 18.5 18.2333Z" stroke="#383838" stroke-linecap="round" stroke-linejoin="round"/>
</svg>
