<svg width="12" height="13" viewBox="0 0 12 13" fill="none" xmlns="http://www.w3.org/2000/svg">
<path d="M9.375 13C9.19167 12.6333 8.96667 12.225 8.7 11.775C8.43333 11.325 8.14167 10.8667 7.825 10.4C7.50833 9.91667 7.18333 9.44167 6.85 8.975C6.51667 8.50833 6.19167 8.06667 5.875 7.65C5.55833 8.06667 5.23333 8.51667 4.9 9C4.56667 9.46667 4.24167 9.94167 3.925 10.425C3.625 10.8917 3.34167 11.35 3.075 11.8C2.80833 12.25 2.58333 12.65 2.4 13H0C0.583333 11.8667 1.275 10.7167 2.075 9.55C2.89167 8.36667 3.7 7.24167 4.5 6.175L0.2 0H2.825L5.925 4.55L9.05 0H11.525L7.325 6.025C8.125 7.10833 8.94167 8.25833 9.775 9.475C10.625 10.675 11.3417 11.85 11.925 13H9.375Z" fill="#979797"/>
</svg>
